<?xml version="1.0" encoding="utf-8"?>
<!-- Generator: Adobe Illustrator 27.5.0, SVG Export Plug-In . SVG Version: 6.00 Build 0)  -->
<svg version="1.1" xmlns="http://www.w3.org/2000/svg" xmlns:xlink="http://www.w3.org/1999/xlink" x="0px" y="0px"
	 viewBox="0 0 750 500" style="enable-background:new 0 0 750 500;" xml:space="preserve">
<g id="BACKGROUND_2">
	<g>
		<rect y="0" style="fill:#8BE1EF;" width="750" height="500"/>
		<g>
			<path style="fill:#A67C52;" d="M243.51,418.656c0,0-0.117-16.363-5.18-30.371c0,0,4.356,17.539,2.59,30.371H243.51z"/>
			<path style="fill:#8CC63F;" d="M238.35,388.615c0,0-5.651-5.111-10.726-3.537c-3.81,1.18-6.29,10.482-6.565,11.086
				C221.059,396.164,227.207,390.455,238.35,388.615z"/>
			<path style="fill:#8CC63F;" d="M238.32,388.475c0,0,9.877,1.389,14.549,7.049c0,0-0.748-6.945-5.432-9.498
				C242.755,383.473,238.32,388.475,238.32,388.475z"/>
			<path style="fill:#8CC63F;" d="M238.33,388.508c0,0-1.377-7.475-5.038-8.922c-3.661-1.447-10.435,1.838-10.435,1.838
				S234.211,382.428,238.33,388.508z"/>
			<path style="fill:#8CC63F;" d="M238.348,388.508c0,0-0.293-6.121,1.531-8.299c1.824-2.178,8.123-1.649,8.123-1.649
				S240.525,380.797,238.348,388.508z"/>
			<circle style="fill:#562605;" cx="238.574" cy="389.803" r="1.313"/>
			<circle style="fill:#663A17;" cx="236.867" cy="390.074" r="1.313"/>
			<circle style="fill:#754C24;" cx="238.574" cy="391.387" r="1.313"/>
		</g>
		<path style="fill:#C1F4F7;" d="M572.882,245.618c2.494-2.012,4.093-5.089,4.093-8.542c0-6.06-4.912-10.973-10.973-10.973
			c-0.779,0-1.537,0.084-2.271,0.238c-1.047-7.227-7.25-12.785-14.767-12.785c-7.502,0-13.694,5.535-14.761,12.741
			c-1.956-2.612-5.066-4.311-8.581-4.311c-5.924,0-10.726,4.802-10.726,10.726c0,1.307,0.245,2.554,0.673,3.712
			c-2.137,0.95-3.628,3.087-3.628,5.575c0,2.587,1.612,4.794,3.885,5.68l-5.633,3.361h37.82h35.737L572.882,245.618z"/>
		<path style="fill:#C1F4F7;" d="M202.003,166.394c2.986-2.409,4.9-6.093,4.9-10.229c0-7.257-5.883-13.14-13.141-13.14
			c-0.932,0-1.84,0.1-2.719,0.285C189.79,134.656,182.362,128,173.36,128c-8.984,0-16.4,6.628-17.676,15.257
			c-2.344-3.129-6.068-5.163-10.277-5.163c-7.094,0-12.844,5.751-12.844,12.844c0,1.565,0.293,3.058,0.807,4.445
			c-2.559,1.138-4.346,3.696-4.346,6.677c0,3.098,1.932,5.739,4.652,6.803l-6.746,4.023h45.291h42.797L202.003,166.394z"/>
		<path style="fill:#C1F4F7;" d="M194.68,336.645c1.24-0.482,2.123-1.682,2.123-3.094c0-1.357-0.814-2.52-1.98-3.039
			c0.234-0.631,0.368-1.313,0.368-2.025c0-3.23-2.619-5.85-5.85-5.85c-1.916,0-3.612,0.926-4.679,2.352
			c-0.582-3.93-3.958-6.949-8.05-6.949c-4.1,0-7.482,3.031-8.053,6.973c-0.4-0.084-0.814-0.129-1.238-0.129
			c-3.305,0-5.984,2.678-5.984,5.982c0,1.883,0.872,3.563,2.232,4.658l-5.928,2.957h19.488h20.625L194.68,336.645z"/>
		<path style="fill:#FFFFFF;" d="M574.408,117.603c0,0-14.961,6.303-25.446,9.48c-10.805-1.813-26.447-6.154-26.447-6.154
			c-10.112,8.999-27.606,17.469-27.606,17.469c19.746-4.606,28.86-13.541,28.86-13.541c5.025,2.932,20.62,9.033,20.62,9.033
			l5.245,3.672l4.734-4.312c0,0,14.688-8.041,19.298-11.591c0,0,10.18,7.698,30.352,9.745
			C604.018,131.403,585.586,125.236,574.408,117.603z"/>
		<path style="fill:#FFFFFF;" d="M192.48,245.232c0,0-8.409,1.572-14.164,2.036c-5.361-2.142-12.932-6.128-12.932-6.128
			c-6.215,3.503-16.17,5.908-16.17,5.908c10.684-0.163,16.376-3.745,16.376-3.745c2.261,2.072,9.608,6.958,9.608,6.958l2.291,2.479
			l2.92-1.691c0,0,8.463-2.499,11.234-3.811c0,0,4.382,5.103,14.541,8.415C206.185,255.652,197.383,250.414,192.48,245.232z"/>
		<path style="fill:#9B5A50;" d="M427.939,133.925c0,0,5.889-16.396,3.014-26.198c-2.875-9.802-17.125-12.677-20-14.802
			s-7.875-5.625-7-11.375c0,0-8.625,3.75-7.25,12.625c0,0-7.722-1-11.236-7.25c0,0-9.639,8.125-2.764,20.813
			c0,0-3.875-0.063-5.875-1.438c0,0,0.25,12.089,10.75,14.107c10.5,2.018,11.5-6.232,11.875-6.482s9-0.75,9-0.75l4.75,6.25
			l5.5,13.375C418.703,132.8,426.802,137.534,427.939,133.925z"/>
		<g>
			<path style="fill:none;stroke:#FFF78D;stroke-width:3;stroke-linecap:round;stroke-linejoin:round;stroke-miterlimit:10;" d="
				M497.365,342.457c-0.473,3.082-1.066,6.125-1.777,9.123c-2.921,12.332-7.811,23.9-14.319,34.357
				c-2.34,3.76-7.631,10.832-7.631,10.832l-187.052-7.185c0,0-2.939-4.518-4.291-6.856c-9.867-17.057-15.514-36.859-15.514-57.98"/>
			<path style="fill:none;stroke:#FFF78D;stroke-width:3;stroke-linecap:round;stroke-linejoin:round;stroke-miterlimit:10;" d="
				M498.57,319.037c0.092,1.893,0.138,3.797,0.138,5.711c0,3.768-0.18,7.492-0.53,11.168"/>
			<path style="fill:none;stroke:#FFF78D;stroke-width:3;stroke-linecap:round;stroke-linejoin:round;stroke-miterlimit:10;" d="
				M496.367,301.447c0.591,2.898,1.073,5.836,1.444,8.809"/>
			<path style="fill:none;stroke:#FFF78D;stroke-width:3;stroke-linecap:round;stroke-linejoin:round;stroke-miterlimit:10;" d="
				M468.1,246.248c13.995,15.209,23.978,34.17,28.268,55.199"/>
			<path style="fill:none;stroke:#FFF78D;stroke-width:3;stroke-linecap:round;stroke-linejoin:round;stroke-miterlimit:10;" d="
				M452.758,232.297c3.689,2.798,7.206,5.812,10.531,9.023"/>
			<path style="fill:none;stroke:#FFF78D;stroke-width:3;stroke-linecap:round;stroke-linejoin:round;stroke-miterlimit:10;" d="
				M271.975,290.328c14.664-47.239,58.711-81.543,110.771-81.543c26.302,0,50.558,8.756,70.013,23.513"/>
			<path style="fill:none;stroke:#FFF78D;stroke-width:3;stroke-linecap:round;stroke-linejoin:round;stroke-miterlimit:10;" d="
				M269.077,301.674c0.472-2.332,1.012-4.641,1.62-6.92"/>
		</g>
		<g>
			<circle style="fill:#FFF78D;" cx="382.161" cy="328.26" r="72.021"/>
		</g>
		<polygon style="fill:#D9E021;" points="458.023,273.848 404.485,379.051 375.078,318.813 345.328,378.551 296.828,280.051 
			229.328,421.871 520.828,421.871 		"/>
		<path style="fill:#8CC63F;" d="M519.15,432.551H226.006c-5.896,0-10.678-4.781-10.678-10.68l0,0
			c0-5.896,4.781-10.678,10.678-10.678H519.15c5.898,0,10.678,4.781,10.678,10.678l0,0
			C529.828,427.77,525.048,432.551,519.15,432.551z"/>
		<path style="fill:none;stroke:#92AD95;stroke-width:5;stroke-miterlimit:10;" d="M311.98,332.496l27.829-74.777
			c1.522-4.09-0.831-8.598-5.058-9.688l-8.887-2.292c-4.188-1.08-8.515,1.179-10.022,5.232l-27.42,69.976"/>
		<polygon style="fill:#E59A38;" points="401.488,161.503 399.541,172.3 406.703,171.731 408.504,167.915 409.636,161.503 		"/>
		<path style="fill:#FFB655;" d="M359.828,309.051c0,0.75-22.25,91.75-22.25,91.75s3.5,3.25,10,0l23-93.25L359.828,309.051z"/>
		<polygon style="fill:#FFB655;" points="403.078,312.301 417.828,400.801 428.828,400.801 412.144,311.301 		"/>
		<g>
			<path style="fill:#FFD34D;" d="M416.103,221.05c0,0-6.516-42-6.27-42.75c0.245-0.75-1.329-8.75-1.329-8.75l-22.176,5.125
				c0,0-8.955,40.919-16.789,76.487l41.254-2.766L416.103,221.05z"/>
			<path style="fill:#3F616F;" d="M355.078,312.551l16.75,4l9.963-40c0,0,7.287-2.75,14.537-1.5l4,41.5l17.5-3.75l-9.25-53
				l2.215-11.405l-41.254,2.766c-5.77,26.189-10.931,49.481-11.461,51.389C356.828,307.051,355.078,312.551,355.078,312.551z"/>
		</g>
		<path style="fill:#FFB655;" d="M371.703,201.05c0,0-13.25,24.125-35.25,40.75c0,0-3.125-3.25-8.5-1.625s-5.25,8-2.375,10.125
			c2.875,2.126,8.625,3.376,11.125,2.126s3.875-4.001,3.75-5.751c0,0,23.625-19.125,35.5-39.75L371.703,201.05z"/>
		<path style="fill:#FFB655;" d="M425.328,140.883l18.667-69c0,0-6.834-0.833-7.167-7c-0.333-6.167,2.667-5.833,2.667-5.833
			s-2.29-11.189,6.833-11.333c10.796-0.171,14.583,7.083,12.5,17.667c-1.246,6.33-6.333,6.5-6.333,6.5l-21.5,74.333L425.328,140.883
			z"/>
		<path style="fill:#FFB655;" d="M427.828,130.55c0,0,1-7-3-8s-4.625,3.125-4.625,3.125s0.25-10.75-4.125-15.375s-23.5-3.5-28,7.375
			c0,0-5.875,29.125,0,39s25.125,8.375,30.875,0s6.875-13.5,7.25-14.125S427.828,130.55,427.828,130.55z"/>
		<path style="fill:#FFFFFF;" d="M408.495,134.217l-17.917,6c0,0-0.083,13,7.583,13.333
			C409.194,154.03,408.495,134.217,408.495,134.217z"/>
		<path style="fill:#750B00;" d="M402.812,124.831c0,0-0.561-6.4,2.992-8.176c3.59-1.793,4.086,3.582,4.023,5.832l-1.625,0.563
			c0,0,0.357-4.754-1.211-5.082c-1.344-0.281-3.648,1.234-3.244,6.489L402.812,124.831z"/>
		<path style="fill:#750B00;" d="M394.599,127.758c0,0,0.397-4.5-1.396-4.75c-1.311-0.183-2.542,2.75-2.292,6.292l-1.125,0.583
			c0,0-0.416-6.333,2.917-8.083c3.333-1.75,2.896,5.416,2.896,5.416L394.599,127.758z"/>
		<path style="fill:#603913;" d="M401.581,253.488c0,0-21.476,0.865-27.631,2.23l2.109-7.281c0,0,17.798-1.968,24.54-1.689
			L401.581,253.488z"/>
		<polygon style="fill:#E6E7E8;" points="384.516,246.722 383.391,255.363 393.763,254.686 393.944,245.998 		"/>
		<g>
			<path style="fill:#EF4A6B;" d="M425.661,130.883l-8.166,30.5l-6.667-2.167c0,0-17.042,28.395-12.579,90.102
				c0.652-1.334,1.604-2.581,2.996-3.394c4.5-2.625,8.419,2.283,8.416,5.295c-0.002,3.012-5.583,6.83-5.583,6.83
				s6.167-0.25,7.417,1.582c0.407,0.598,0.625,1.506,0.644,2.494c6.016-1.059,12.88-3.268,17.439-7.826
				c0,0-3.208-9.245-5.803-23.454c-1.77,0.317-3.853,0.038-4.53-0.797c-1.084-1.333,0.083-5.833,0.083-5.833
				s-3.833,2.75-6.167,2.083c-2.333-0.667-3.916-5.917-2.583-9.5c0.955-2.568,3.908-2.524,5.51-2.294
				c-1.724-0.63-4.579-2.581-4.843-4.956c-0.334-3,3-6.917,6.583-5.833c1.202,0.364,2.184,1.142,2.965,2.013
				c-0.28-5.27-0.335-10.777-0.089-16.412c-1.154-0.335-2.419-1.106-2.876-2.851c-0.917-3.5,2.5-7.667,2.5-7.667
				c-2.167,1.917-3.907,0-3.907,0c-2.907-4.333,0.24-11.833,2.824-12.26c2.583-0.427,5.166,3.01,5.166,3.01
				s-1.666-3.333-0.416-4.667c0.772-0.824,2.628-1.146,3.933-1.272l7.4-15.395C435.828,148.217,425.661,130.883,425.661,130.883z"/>
			<path style="fill:#EF4A6B;" d="M401.414,164.093l0.074-0.563l-0.852-0.093c0,0-2.655-0.322-3.505-0.581
				c-1.867-0.57-1.35-0.212-3.659-1.336c-0.096-0.047-0.547,0.018-0.651,0.023c-0.865,0.046-1.653,0.15-2.243,0.34
				c-2.583,0.833-4.306,8.833-5.111,12.167l-2.806,1c0,0-0.718,1.676-1.846,4.223c0.992,0.068,1.98,0.35,2.513,1.11
				c1.334,1.9,0.417,8.198-2.083,9.182c-2.5,0.985-4.084,0-4.084,0s1.584,3.651,1,5.651c-0.49,1.684-3.579,3.536-6.582,3.387
				c-0.825,1.514-1.593,2.818-2.251,3.78c0,0,3.634,6.566,8.983,8.867c0,0-6.316,33.967-15.649,44.801c0,0,1.166,5.225,11.166,7.029
				c0,0,4.416-14.873,8.5-40.863c3.187-20.275,9.966-46.926,11.233-49.213l6.889-1.592L401.414,164.093z"/>
			<path style="fill:#FFD34D;" d="M411.495,259.633c-1.25-1.832-7.417-1.582-7.417-1.582s5.581-3.818,5.583-6.83
				c0.003-3.013-3.916-7.92-8.416-5.295c-1.392,0.812-2.344,2.059-2.996,3.394c0.318,4.412,0.739,8.978,1.292,13.732
				c0,0,5.749,0.283,12.598-0.924C412.12,261.139,411.902,260.23,411.495,259.633z"/>
			<path style="fill:#FFD34D;" d="M417.828,203.717c-3.583-1.083-6.917,2.833-6.583,5.833c0.264,2.375,3.119,4.326,4.843,4.956
				c0.634,0.091,1.063,0.21,1.063,0.21c-0.229,0.035-0.608-0.044-1.063-0.21c-1.602-0.23-4.555-0.274-5.51,2.294
				c-1.333,3.583,0.25,8.833,2.583,9.5c2.334,0.667,6.167-2.083,6.167-2.083s-1.167,4.5-0.083,5.833
				c0.678,0.835,2.761,1.114,4.53,0.797c-1.326-7.264-2.489-15.822-2.982-25.117C420.012,204.859,419.03,204.081,417.828,203.717z"
				/>
			<path style="fill:#FFD34D;" d="M417.15,214.717c0,0-0.429-0.12-1.063-0.21C416.542,214.672,416.922,214.751,417.15,214.717z"/>
			<path style="fill:#FFD34D;" d="M424.411,169.55c0,0-2.583-3.436-5.166-3.01c-2.584,0.426-5.731,7.926-2.824,12.26
				c0,0,1.74,1.917,3.907,0c0,0-3.417,4.167-2.5,7.667c0.457,1.745,1.722,2.516,2.876,2.851c0.186-4.281,0.54-8.632,1.124-13.018
				l6.1-12.689c-1.305,0.126-3.16,0.448-3.933,1.272C422.745,166.217,424.411,169.55,424.411,169.55z"/>
			<path style="fill:#FFD34D;" d="M378.161,195.217c0.584-2-1-5.651-1-5.651s1.584,0.985,4.084,0c2.5-0.984,3.417-7.282,2.083-9.182
				c-0.533-0.76-1.52-1.042-2.513-1.11c-2.26,5.101-6.161,13.693-9.236,19.33C374.582,198.752,377.671,196.9,378.161,195.217z"/>
		</g>
		<polygon style="fill:#FFFFFF;" points="337.578,400.801 315.328,413.717 348.328,413.717 347.578,400.801 		"/>
		<polygon style="fill:#FFFFFF;" points="417.828,400.801 415.953,414.551 435.995,414.551 428.828,400.801 		"/>
		<path style="fill:#0B87D3;" d="M289.822,413.051l-28.311-10.068c-3.242-1.154-4.935-4.717-3.782-7.957l24.851-69.875
			c1.153-3.242,4.715-4.936,7.957-3.783l28.311,10.068c3.24,1.152,4.934,4.715,3.781,7.957l-24.851,69.875
			C296.625,412.51,293.062,414.203,289.822,413.051z"/>
		<path style="fill:#3FA9F5;" d="M282.439,410.424l-28.311-10.068c-3.241-1.152-4.934-4.715-3.781-7.955l24.85-69.877
			c1.153-3.24,4.715-4.934,7.956-3.781l28.311,10.068c3.242,1.152,4.935,4.715,3.781,7.957l-24.85,69.875
			C289.243,409.885,285.681,411.578,282.439,410.424z"/>
		<g>
			<path style="fill:#2F4921;" d="M282.703,411.193c0,2.818,2.285,5.104,5.104,5.104c2.819,0,5.104-2.285,5.104-5.104
				c0-2.818-2.285-5.104-5.104-5.104C284.988,406.09,282.703,408.375,282.703,411.193z"/>
			<path style="fill:#2F4921;" d="M258.185,411.193c0,2.818,2.285,5.104,5.104,5.104c2.818,0,5.103-2.285,5.103-5.104
				c0-2.818-2.285-5.104-5.103-5.104C260.471,406.09,258.185,408.375,258.185,411.193z"/>
		</g>
		<polygon style="fill:#990025;" points="411.096,160.912 411.775,169.629 416.103,165.734 410.725,171.731 410.37,164.113 		"/>
		<path style="fill:#990025;" d="M393.641,171.988c0,0-1.719-7.102-3.219-8.457c0,0-1.5,2.988-2.438,5.551
			c0,0,1.625-2.125,2.25-2.531c0,0,1.568,2.889,2.063,5.75L393.641,171.988z"/>
		<path style="fill:#990025;" d="M406.516,170.467c0,0,3.098-8.006,4.58-9.555v2.7C411.096,163.611,409.266,165.529,406.516,170.467
			z"/>
		<g>
			<path style="fill:#A67C52;" d="M494.929,411.193c0,0,0.214-29.75,9.418-55.221c0,0-7.92,31.891-4.709,55.221H494.929z"/>
			<path style="fill:#8CC63F;" d="M504.311,356.574c0,0,10.275-9.293,19.502-6.434c6.926,2.147,11.435,19.063,11.937,20.16
				C535.75,370.301,524.572,359.92,504.311,356.574z"/>
			<path style="fill:#8CC63F;" d="M504.365,356.318c0,0-17.958,2.525-26.452,12.814c0,0,1.359-12.627,9.874-17.27
				C496.302,347.223,504.365,356.318,504.365,356.318z"/>
			<path style="fill:#8CC63F;" d="M504.347,356.379c0,0,2.503-13.592,9.161-16.223c6.657-2.631,18.971,3.344,18.971,3.344
				S511.836,345.324,504.347,356.379z"/>
			<path style="fill:#8CC63F;" d="M504.315,356.379c0,0,0.535-11.131-2.782-15.09c-3.317-3.961-14.768-2.996-14.768-2.996
				S500.354,342.359,504.315,356.379z"/>
			<circle style="fill:#562605;" cx="503.903" cy="358.734" r="2.387"/>
			<path style="fill:#663A17;" d="M504.621,359.225c0,1.318,1.068,2.387,2.386,2.387c1.318,0,2.387-1.068,2.387-2.387
				c0-1.316-1.068-2.385-2.387-2.385C505.69,356.84,504.621,357.908,504.621,359.225z"/>
			<circle style="fill:#754C24;" cx="503.903" cy="361.611" r="2.387"/>
		</g>
		<path style="fill:#FFFFFF;" d="M574.32,306.666c0,0-4.658,2.102-7.934,3.186c-3.415-0.484-8.374-1.725-8.374-1.725
			c-3.11,2.912-8.55,5.717-8.55,5.717c6.179-1.605,8.977-4.492,8.977-4.492c1.604,0.883,6.563,2.68,6.563,2.68l1.68,1.113
			l1.456-1.395c0,0,4.559-2.648,5.981-3.803c0,0,3.266,2.342,9.632,2.826C583.751,310.773,577.9,308.978,574.32,306.666z"/>
		<g>
			<rect x="298.256" y="201.57" style="fill:#A5723F;" width="6.666" height="0.326"/>
			<g>
				
					<rect x="297.937" y="197.599" transform="matrix(0.9893 -0.146 0.146 0.9893 -26.1293 45.7015)" style="fill:#C69C6D;" width="0.581" height="6.46"/>
			</g>
			<g>
				
					<rect x="301.692" y="200.538" transform="matrix(0.1462 -0.9893 0.9893 0.1462 61.6781 473.1186)" style="fill:#C69C6D;" width="6.46" height="0.581"/>
			</g>
			<g>
				<path style="fill:#FFFFFF;" d="M284.547,166.093c0.243-5.035,1.602-8.92,3.454-11.907c3.336-5.379,8.445-8.069,13.555-8.069l0,0
					c-6.097,0-12.192,2.69-16.173,8.069c-2.211,2.988-3.832,6.872-4.121,11.907c-1.068,18.59,20.295,35.323,20.295,35.323
					S283.652,184.684,284.547,166.093z"/>
				<path style="fill:#EF4A6B;" d="M321.851,166.093c-0.289-5.035-1.911-8.92-4.121-11.907c-3.979-5.379-10.076-8.069-16.173-8.069
					l0,0c5.109,0,10.219,2.69,13.555,8.069c1.852,2.988,3.211,6.872,3.453,11.907c0.896,18.59-17.008,35.323-17.008,35.323
					S322.919,184.684,321.851,166.093z"/>
				<path style="fill:#EF4A6B;" d="M289.766,166.093c0.168-5.035,1.11-8.92,2.395-11.907c2.313-5.379,5.853-8.069,9.395-8.069l0,0
					c-5.109,0-10.219,2.69-13.555,8.069c-1.853,2.988-3.211,6.872-3.454,11.907c-0.895,18.59,17.01,35.323,17.01,35.323
					S289.145,184.684,289.766,166.093z"/>
				<path style="fill:#FFFFFF;" d="M318.564,166.093c-0.242-5.035-1.602-8.92-3.453-11.907c-3.336-5.379-8.445-8.069-13.555-8.069
					l0,0c3.541,0,7.084,2.69,9.396,8.069c1.284,2.988,2.226,6.872,2.394,11.907c0.621,18.589-11.789,35.321-11.789,35.323l0,0l0,0
					l0,0C301.557,201.416,319.46,184.684,318.564,166.093z"/>
				<path style="fill:#EF4A6B;" d="M305.406,154.186c0.527,2.988,0.913,6.872,0.982,11.907c0.254,18.59-4.832,35.322-4.832,35.322
					c0-0.001,12.41-16.733,11.789-35.322c-0.168-5.035-1.109-8.92-2.394-11.907c-2.312-5.379-5.854-8.069-9.396-8.069
					C303.008,146.117,304.459,148.807,305.406,154.186z"/>
				<path style="fill:#FFFFFF;" d="M296.725,166.093c0.068-5.035,0.455-8.92,0.98-11.907c0.947-5.379,2.398-8.069,3.851-8.069
					c-3.542,0-7.083,2.69-9.395,8.069c-1.284,2.988-2.227,6.872-2.395,11.907c-0.62,18.59,11.791,35.323,11.791,35.323l0,0
					C301.557,201.416,296.47,184.683,296.725,166.093z"/>
				<path style="fill:#FFFFFF;" d="M301.557,201.416L301.557,201.416c0,0,6.205-16.733,5.895-35.323
					c-0.084-5.035-0.555-8.92-1.197-11.907c-1.156-5.379-2.926-8.069-4.697-8.069l0,0V201.416z"/>
				<path style="fill:#EF4A6B;" d="M301.557,146.117L301.557,146.117L301.557,146.117c-1.771,0.001-3.543,2.69-4.699,8.069
					c-0.641,2.988-1.112,6.872-1.196,11.907c-0.31,18.59,5.896,35.322,5.896,35.322v0.001V146.117z"/>
			</g>
			<polygon style="fill:#8C6239;" points="301.557,203.89 301.557,203.89 298.337,203.89 299.148,209.216 301.557,209.216 
				301.557,209.216 303.963,209.216 304.775,203.89 			"/>
		</g>
		<path d="M418.208,112.333c0,0,2.667,5.5,2.292,11.541c0,0,0.958-2.166,3.917-1.833c2.958,0.333,4.169,3.44,3.875,6.208
			l2.833-10.375c0,0,0.81-5.775-0.625-9.875C430.5,107.999,425.375,113.416,418.208,112.333z"/>
		<path d="M440.333,59.083c0,0,5.167-0.25,7,1.083c1.834,1.333,2.5,4.417,0.334,4.917c-2.167,0.5-6.667-1-6.667-1
			s5.167,2.666,7.5,2.5c2.333-0.167,3.333-3.417,1.667-6.083c-1.667-2.667-5.834-3.667-10.417-3.167
			C439.75,57.333,439.667,58,440.333,59.083z"/>
		<path d="M451.417,61.899c0,0,3.332,0.267,4.551-0.566c1.22-0.833,1.729-2.583,0.731-4.5c0,0,2.967,2.885-0.386,5.823
			c0,0-2.461,1.163-4.896,0.51V61.899z"/>
		<path d="M458.312,63.365c0,0-0.125,6.759-8.875,8.322l0.625,0.625l-19.128,66.205l1.19,2.17L452,71.749
			C452,71.749,459.062,70.293,458.312,63.365z"/>
		<path d="M402.042,164.124c0,0,4.908,0.053,6.462-0.792l-0.837,1.792c0,0-2.709,1.338-6,0.564L402.042,164.124z"/>
		<path d="M430.375,141.249l4,7.25l-14,27.965c0,0-3.375,53.544,8.375,77.664c0,0-2.25,1.996-4,2.746
			c0,0-10.883-43.587-5.875-81.876L430.375,141.249z"/>
		<path d="M430.375,141.249l4,7.25l-14,27.965c0,0-3.375,53.544,8.375,77.664c0,0-2.25,1.996-4,2.746
			c0,0-10.883-43.587-5.875-81.876L430.375,141.249z"/>
		<path d="M393.477,161.847c0,0,4.593,2.242,7.731,1.939l-0.891,7.417l-4.534,0.97c0,0,2.464-2.254,2.201-4.927
			C397.723,164.572,393.477,161.847,393.477,161.847z"/>
		<path d="M399.687,263.75c0,0,7.125,0,8.813-0.375l8.437,48.688l-4.187,0.813l-6.875-47.063
			C405.875,265.813,401.5,265.063,399.687,263.75z"/>
		<polygon points="371.166,314.916 380.417,276.75 378.25,277.666 368.166,314.416 		"/>
		<path d="M422.667,140.687c0,0-5.078,14.996-10.609,18.665l2.41,0.866c0,0,3.143-1.937,3.943-3.746L422.667,140.687z"/>
		<polygon points="404.667,316.551 412,314.916 427.75,400.281 434.667,413.582 431.833,413.582 426.583,400.281 409.833,317.832 
			405.333,318.832 		"/>
		<polygon points="359.312,314.125 367.75,316.188 347,400.801 344.625,400.801 364,318.375 358.562,317.313 		"/>
		<path d="M373.166,263.5c0,0-4.582-0.5-5.582-1.918l-0.5,2.334C367.084,263.916,371.584,264.25,373.166,263.5z"/>
		<path d="M371.579,204.249c0,0,2.272,3.796,6.181,6.107l7.073-32.69l-8.88,27.083L371.579,204.249z"/>
		<path d="M371.579,204.249c0,0,2.272,3.796,6.181,6.107l7.073-32.69l-8.88,27.083L371.579,204.249z"/>
		<path d="M369.016,206.109c0,0,1.094,2.125,2.564,3.207c0,0-14.245,21.35-33.329,36.6c0,0-1.5,3.75-4.834,4.083
			c-3.332,0.333-7.718-0.976-8.75-2.75c0,0,1.25,4.833,9.084,5.001c7.834,0.166,6.084-6.417,6.084-6.417s23-17.333,34.416-36.833
			c0,0-2.781-2.141-4.016-4.734L369.016,206.109z"/>
	</g>
</g>
<g id="BACKGROUND_1">
</g>

</svg>
